<svg width="43" height="43" viewBox="0 0 43 43" fill="none" xmlns="http://www.w3.org/2000/svg">
<path d="M32.5103 12.9646C33.8772 12.9646 34.9853 11.8566 34.9853 10.4896C34.9853 9.12274 33.8772 8.01465 32.5103 8.01465C31.1434 8.01465 30.0353 9.12274 30.0353 10.4896C30.0353 11.8566 31.1434 12.9646 32.5103 12.9646Z" fill="#F3A50D"/>
<path d="M21.5 10.9091C19.4053 10.9091 17.3577 11.5302 15.616 12.694C13.8743 13.8577 12.5169 15.5118 11.7152 17.447C10.9136 19.3823 10.7039 21.5117 11.1126 23.5662C11.5212 25.6206 12.5299 27.5077 14.0111 28.9889C15.4922 30.4701 17.3794 31.4788 19.4338 31.8874C21.4883 32.2961 23.6177 32.0863 25.553 31.2847C27.4882 30.4831 29.1423 29.1257 30.306 27.384C31.4698 25.6423 32.0909 23.5947 32.0909 21.5C32.0909 18.6911 30.9751 15.9973 28.9889 14.0111C27.0027 12.0249 24.3089 10.9091 21.5 10.9091ZM21.5 28.375C20.1403 28.375 18.811 27.9718 17.6805 27.2163C16.5499 26.4609 15.6687 25.3872 15.1483 24.1309C14.628 22.8747 14.4918 21.4924 14.7571 20.1587C15.0224 18.8251 15.6772 17.6001 16.6386 16.6386C17.6001 15.6771 18.8251 15.0224 20.1588 14.7571C21.4924 14.4918 22.8747 14.628 24.1309 15.1483C25.3872 15.6687 26.4609 16.5499 27.2164 17.6804C27.9718 18.811 28.375 20.1402 28.375 21.5C28.375 23.3234 27.6507 25.072 26.3614 26.3614C25.072 27.6507 23.3234 28.375 21.5 28.375Z" fill="#F3A50D"/>
<path d="M21.5 4.59094C27.0069 4.59094 27.66 4.61156 29.8342 4.71125C31.1419 4.72677 32.4372 4.96688 33.6636 5.42109C34.5533 5.76431 35.3614 6.29 36.0357 6.96432C36.71 7.63865 37.2357 8.44667 37.5789 9.33641C38.0331 10.5628 38.2732 11.8581 38.2887 13.1658C38.3884 15.34 38.4091 15.9931 38.4091 21.5017C38.4091 27.0103 38.3884 27.66 38.2887 29.8342C38.2732 31.1419 38.0331 32.4372 37.5789 33.6636C37.2357 34.5533 36.71 35.3614 36.0357 36.0357C35.3614 36.71 34.5533 37.2357 33.6636 37.5789C32.4372 38.0331 31.1419 38.2732 29.8342 38.2887C27.66 38.3884 27.0069 38.4091 21.5 38.4091C15.9931 38.4091 15.34 38.3884 13.1658 38.2887C11.8581 38.2732 10.5628 38.0331 9.33641 37.5789C8.44667 37.2357 7.63865 36.71 6.96432 36.0357C6.29 35.3614 5.76431 34.5533 5.42109 33.6636C4.96688 32.4372 4.72677 31.1419 4.71125 29.8342C4.61156 27.66 4.59094 27.0069 4.59094 21.5C4.59094 15.9931 4.61156 15.34 4.71125 13.1658C4.72677 11.8581 4.96688 10.5628 5.42109 9.33641C5.76431 8.44667 6.29 7.63865 6.96432 6.96432C7.63865 6.29 8.44667 5.76431 9.33641 5.42109C10.5628 4.96688 11.8581 4.72677 13.1658 4.71125C15.34 4.61156 15.9931 4.59094 21.5 4.59094V4.59094ZM21.5 0.875C15.8986 0.875 15.1956 0.899063 12.9956 0.99875C11.2851 1.03329 9.59277 1.35757 7.99063 1.95781C6.62031 2.4877 5.37582 3.29805 4.33694 4.33694C3.29805 5.37582 2.4877 6.62031 1.95781 7.99063C1.35738 9.59331 1.0331 11.2862 0.99875 12.9973C0.899063 15.1973 0.875 15.8969 0.875 21.5C0.875 27.1031 0.899063 27.8044 0.99875 30.0044C1.03329 31.7149 1.35757 33.4072 1.95781 35.0094C2.4877 36.3797 3.29805 37.6242 4.33694 38.6631C5.37582 39.7019 6.62031 40.5123 7.99063 41.0422C9.59331 41.6426 11.2862 41.9669 12.9973 42.0012C15.1973 42.1009 15.8986 42.125 21.5 42.125C27.1014 42.125 27.8044 42.1009 30.0044 42.0012C31.7155 41.9669 33.4084 41.6426 35.0111 41.0422C36.3814 40.5123 37.6259 39.7019 38.6648 38.6631C39.7037 37.6242 40.514 36.3797 41.0439 35.0094C41.6438 33.4066 41.9675 31.7137 42.0012 30.0027C42.1009 27.8027 42.125 27.1031 42.125 21.5C42.125 15.8969 42.1009 15.1956 42.0012 12.9956C41.9667 11.2851 41.6424 9.59277 41.0422 7.99063C40.5123 6.62031 39.7019 5.37582 38.6631 4.33694C37.6242 3.29805 36.3797 2.4877 35.0094 1.95781C33.4066 1.35797 31.7137 1.03426 30.0027 1.00047C27.8027 0.897344 27.1031 0.875 21.5 0.875Z" fill="#F3A50D"/>
</svg>
