<svg width="55" height="55" viewBox="0 0 55 55" fill="none" xmlns="http://www.w3.org/2000/svg">
<path d="M39.8692 32.8957C39.2001 32.5519 35.867 30.9191 35.247 30.6981C34.627 30.4648 34.1728 30.3544 33.7247 31.0419C33.2704 31.7232 31.9814 33.2394 31.5762 33.6998C31.1834 34.154 30.7844 34.2093 30.1153 33.8717C26.1376 31.8828 23.5288 30.3237 20.9077 25.8242C20.2141 24.6272 21.6014 24.7132 22.8966 22.1289C23.1175 21.6747 23.007 21.288 22.8352 20.9442C22.6633 20.6005 21.3128 17.2734 20.7481 15.9169C20.2018 14.5971 19.6371 14.7813 19.2258 14.7567C18.8329 14.7321 18.3848 14.7321 17.9306 14.7321C17.4764 14.7321 16.7459 14.904 16.1259 15.5731C15.5059 16.2545 13.7565 17.8934 13.7565 21.2204C13.7565 24.5474 16.1811 27.7701 16.5126 28.2243C16.8564 28.6786 21.2822 35.5045 28.0774 38.4448C32.3742 40.2986 34.0561 40.4582 36.2046 40.139C37.5121 39.9425 40.2068 38.5061 40.7654 36.9163C41.324 35.3326 41.324 33.976 41.1583 33.6936C40.9925 33.3929 40.5383 33.221 39.8692 32.8957Z" fill="#08A82B"/>
<path d="M52.8642 16.8438C51.4769 13.5474 49.4881 10.5887 46.9529 8.04743C44.4178 5.51228 41.4591 3.5173 38.1566 2.13616C34.7805 0.718192 31.1957 0 27.5003 0H27.3776C23.6577 0.0184152 20.0545 0.755022 16.6661 2.20368C13.3943 3.60324 10.4602 5.59208 7.94957 8.12723C5.43896 10.6624 3.46854 13.6088 2.10582 16.8929C0.693987 20.2935 -0.0180669 23.909 0.000348248 27.6289C0.0187634 31.889 1.03774 36.1183 2.94678 39.8996V49.2299C2.94678 50.7891 4.21129 52.0536 5.77044 52.0536H15.1069C18.8882 53.9626 23.1175 54.9816 27.3776 55H27.5065C31.1834 55 34.7498 54.2879 38.1075 52.8945C41.3915 51.5257 44.3441 49.5614 46.8731 47.0508C49.4083 44.5402 51.4032 41.606 52.7967 38.3343C54.2453 34.9459 54.9819 31.3426 55.0003 27.6228C55.0188 23.8845 54.2944 20.2567 52.8642 16.8438ZM43.5891 43.7299C39.2861 47.99 33.5774 50.3348 27.5003 50.3348H27.396C23.6945 50.3164 20.0176 49.3956 16.7704 47.6646L16.2548 47.3884H7.61196V38.7455L7.33573 38.2299C5.6047 34.9827 4.68394 31.3058 4.66553 27.6044C4.64097 21.4844 6.9797 15.7388 11.2704 11.4113C15.555 7.0837 21.2822 4.68973 27.4021 4.66518H27.5065C30.5757 4.66518 33.5528 5.2606 36.358 6.43917C39.0958 7.58705 41.5511 9.23828 43.6627 11.3499C45.7682 13.4554 47.4256 15.9169 48.5735 18.6546C49.7643 21.4905 50.3597 24.4983 50.3474 27.6044C50.3106 33.7182 47.9105 39.4453 43.5891 43.7299Z" fill="#08A82B"/>
</svg>
