<svg width="56" height="36" viewBox="0 0 56 36" fill="none" xmlns="http://www.w3.org/2000/svg">
<path d="M52 0H4C2.93913 0 1.92172 0.3729 1.17157 1.03667C0.421427 1.70043 0 2.6007 0 3.5394V31.8546C0 32.7933 0.421427 33.6936 1.17157 34.3574C1.92172 35.0211 2.93913 35.394 4 35.394H52C53.0609 35.394 54.0783 35.0211 54.8284 34.3574C55.5786 33.6936 56 32.7933 56 31.8546V3.5394C56 2.6007 55.5786 1.70043 54.8284 1.03667C54.0783 0.3729 53.0609 0 52 0ZM47.6 3.5394L28 15.538L8.4 3.5394H47.6ZM4 31.8546V5.14983L26.86 19.1482C27.1948 19.3537 27.5925 19.4638 28 19.4638C28.4075 19.4638 28.8052 19.3537 29.14 19.1482L52 5.14983V31.8546H4Z" fill="#635F5F"/>
</svg>
