<svg width="55" height="55" viewBox="0 0 55 55" fill="none" xmlns="http://www.w3.org/2000/svg">
<path d="M32.0833 13.75V9.16665H22.9167V13.75H32.0833ZM9.16666 20.625V41.25C9.16666 42.5104 10.1979 43.5416 11.4583 43.5416H43.5417C44.8021 43.5416 45.8333 42.5104 45.8333 41.25V20.625C45.8333 19.3646 44.8021 18.3333 43.5417 18.3333H11.4583C10.1979 18.3333 9.16666 19.3646 9.16666 20.625ZM45.8333 13.75C48.3771 13.75 50.4167 15.7896 50.4167 18.3333V43.5416C50.4167 46.0854 48.3771 48.125 45.8333 48.125H9.16666C6.62291 48.125 4.58333 46.0854 4.58333 43.5416L4.60624 18.3333C4.60624 15.7896 6.62291 13.75 9.16666 13.75H18.3333V9.16665C18.3333 6.6229 20.3729 4.58331 22.9167 4.58331H32.0833C34.6271 4.58331 36.6667 6.6229 36.6667 9.16665V13.75H45.8333Z" fill="#0D5FFE"/>
</svg>
